<?xml version="1.0" encoding="UTF-8"?>
<!DOCTYPE svg PUBLIC "-//W3C//DTD SVG 1.1//EN" "http://www.w3.org/Graphics/SVG/1.1/DTD/svg11.dtd">
<svg xmlns="http://www.w3.org/2000/svg" version="1.1" width="219px" height="55px" style="shape-rendering:geometricPrecision; text-rendering:geometricPrecision; image-rendering:optimizeQuality; fill-rule:evenodd; clip-rule:evenodd" xmlns:xlink="http://www.w3.org/1999/xlink">
<g><path style="opacity:1" fill="#81a9be" d="M 0.5,1.5 C 13.9898,0.504291 27.6565,0.170958 41.5,0.5C 41.5,3.16667 41.5,5.83333 41.5,8.5C 41.1667,8.5 40.8333,8.5 40.5,8.5C 40.5,6.16667 40.5,3.83333 40.5,1.5C 27.1667,1.5 13.8333,1.5 0.5,1.5 Z"/></g>
<g><path style="opacity:1" fill="#adaeac" d="M 56.5,1.5 C 52.1667,1.5 47.8333,1.5 43.5,1.5C 43.7947,3.73535 43.4614,5.73535 42.5,7.5C 42.5,5.16667 42.5,2.83333 42.5,0.5C 47.3633,0.180544 52.03,0.513877 56.5,1.5 Z"/></g>
<g><path style="opacity:1" fill="#306d92" d="M 0.5,1.5 C 13.8333,1.5 27.1667,1.5 40.5,1.5C 40.5,3.83333 40.5,6.16667 40.5,8.5C 40.5,9.83333 40.5,11.1667 40.5,12.5C 39.596,13.209 39.2627,14.209 39.5,15.5C 38.6618,15.8417 38.3284,16.5084 38.5,17.5C 37.6618,17.8417 37.3284,18.5084 37.5,19.5C 36.0937,19.9731 35.427,20.9731 35.5,22.5C 32.5,24.8333 29.8333,27.5 27.5,30.5C 26.8333,30.5 26.5,30.8333 26.5,31.5C 25.5084,31.3284 24.8417,31.6618 24.5,32.5C 22.1815,32.9925 20.1815,33.9925 18.5,35.5C 17.209,35.2627 16.209,35.596 15.5,36.5C 12.1834,36.781 9.01678,36.781 6,36.5C 5.50046,30.1754 5.33379,23.8421 5.5,17.5C 3.83333,17.5 2.16667,17.5 0.5,17.5C 0.5,12.1667 0.5,6.83333 0.5,1.5 Z M 19.5,17.5 C 22.5184,17.3354 25.5184,17.502 28.5,18C 27.6195,18.7083 26.9528,19.5416 26.5,20.5C 24.8333,21.5 23.5,22.8333 22.5,24.5C 21.5084,24.3284 20.8417,24.6618 20.5,25.5C 19.5269,23.0521 19.1936,20.3854 19.5,17.5 Z"/></g>
<g><path style="opacity:1" fill="#686b68" d="M 56.5,1.5 C 56.6602,3.19919 56.4935,4.86586 56,6.5C 53.5946,8.40297 51.7612,10.7363 50.5,13.5C 51.2427,14.1818 51.9094,14.8485 52.5,15.5C 53.8062,16.4674 54.4729,17.8007 54.5,19.5C 52.1246,22.0254 49.2913,24.0254 46,25.5C 45.3333,26.1667 45.3333,26.8333 46,27.5C 46.9947,28.0659 47.828,28.7326 48.5,29.5C 48.5,30.5 48.5,31.5 48.5,32.5C 48.3893,33.1174 48.056,33.6174 47.5,34C 43.7894,34.8443 40.1228,35.8443 36.5,37C 37.305,38.1127 37.9717,39.2794 38.5,40.5C 38.8333,41.1667 39.1667,41.8333 39.5,42.5C 39.5,43.1667 39.1667,43.5 38.5,43.5C 35.8333,43.5 33.1667,43.5 30.5,43.5C 28.5,43.5 26.5,43.5 24.5,43.5C 24.2627,44.791 24.596,45.791 25.5,46.5C 28.3183,49.5726 27.485,51.2393 23,51.5C 19.6728,50.5875 16.5062,49.2542 13.5,47.5C 12.5344,49.396 12.2011,51.396 12.5,53.5C 10.5,53.5 8.5,53.5 6.5,53.5C 6.5,48.8333 6.5,44.1667 6.5,39.5C 9.42816,39.4349 12.0948,38.7682 14.5,37.5C 14.8333,37.5 15.1667,37.5 15.5,37.5C 17.698,37.8799 19.3646,37.2132 20.5,35.5C 21.391,34.8902 22.391,34.5569 23.5,34.5C 25.0269,34.573 26.0269,33.9063 26.5,32.5C 28.0269,32.573 29.0269,31.9063 29.5,30.5C 31.9092,28.0976 33.9092,25.4309 35.5,22.5C 36.9063,22.0269 37.573,21.0269 37.5,19.5C 38.3382,19.1583 38.6716,18.4916 38.5,17.5C 39.3382,17.1583 39.6716,16.4916 39.5,15.5C 40.1667,15.5 40.5,15.1667 40.5,14.5C 42.2798,13.0101 42.9465,11.0101 42.5,8.5C 42.5,8.16667 42.5,7.83333 42.5,7.5C 43.4614,5.73535 43.7947,3.73535 43.5,1.5C 47.8333,1.5 52.1667,1.5 56.5,1.5 Z"/></g>
<g><path style="opacity:1" fill="#7c7c7c" d="M 82.5,0.5 C 84.5,0.5 86.5,0.5 88.5,0.5C 88.1706,3.22817 88.8372,5.5615 90.5,7.5C 90.1814,9.7505 90.6814,11.7505 92,13.5C 92.4643,12.9056 92.631,12.2389 92.5,11.5C 94.2766,8.49544 95.2766,5.16211 95.5,1.5C 97.5,1.5 99.5,1.5 101.5,1.5C 101.5,8.5 101.5,15.5 101.5,22.5C 100.167,22.5 98.8333,22.5 97.5,22.5C 97.6653,18.8183 97.4986,15.1516 97,11.5C 96.2086,12.745 95.7086,14.0783 95.5,15.5C 96.0898,20.5098 94.0898,22.1765 89.5,20.5C 88.7542,19.2638 88.4208,17.9305 88.5,16.5C 88.7692,14.5714 88.2692,12.9047 87,11.5C 86.5014,15.1516 86.3347,18.8183 86.5,22.5C 85.1667,22.5 83.8333,22.5 82.5,22.5C 82.5,15.1667 82.5,7.83333 82.5,0.5 Z"/></g>
<g><path style="opacity:1" fill="#7b7b7b" d="M 134.5,0.5 C 135.833,0.5 137.167,0.5 138.5,0.5C 138.334,4.51383 138.501,8.51383 139,12.5C 139.717,11.9558 140.217,11.2891 140.5,10.5C 141.906,10.0269 142.573,9.02694 142.5,7.5C 144.415,7.21552 146.081,7.54885 147.5,8.5C 146.974,10.2303 145.974,11.5637 144.5,12.5C 143.285,13.779 143.618,14.779 145.5,15.5C 146.674,16.5137 147.34,17.847 147.5,19.5C 147.414,20.4959 147.748,21.3292 148.5,22C 146.833,22.6667 145.167,22.6667 143.5,22C 142.624,20.414 141.624,18.914 140.5,17.5C 139.893,17.6236 139.56,17.9569 139.5,18.5C 138.566,19.5676 138.232,20.901 138.5,22.5C 137.167,22.5 135.833,22.5 134.5,22.5C 134.5,15.1667 134.5,7.83333 134.5,0.5 Z"/></g>
<g><path style="opacity:1" fill="#dfdfdf" d="M 138.5,0.5 C 139.167,3.83333 139.833,7.16667 140.5,10.5C 140.217,11.2891 139.717,11.9558 139,12.5C 138.501,8.51383 138.334,4.51383 138.5,0.5 Z"/></g>
<g><path style="opacity:1" fill="#7f807f" d="M 170.5,2.5 C 170.331,4.91196 170.997,7.07863 172.5,9C 171.453,10.6803 170.787,12.5136 170.5,14.5C 171.191,17.1984 171.858,19.865 172.5,22.5C 170.435,22.4828 168.435,22.1495 166.5,21.5C 165.521,18.3752 165.187,15.0419 165.5,11.5C 165.077,10.7354 164.743,9.90211 164.5,9C 166.003,7.07863 166.669,4.91196 166.5,2.5C 167.702,1.59464 169.036,1.59464 170.5,2.5 Z"/></g>
<g><path style="opacity:1" fill="#cbcbcb" d="M 88.5,0.5 C 89.6118,2.59937 90.2785,4.93271 90.5,7.5C 88.8372,5.5615 88.1706,3.22817 88.5,0.5 Z"/></g>
<g><path style="opacity:1" fill="#d5d5d5" d="M 115.5,7.5 C 112.813,7.33591 110.146,7.50258 107.5,8C 106.306,10.6578 107.306,11.8244 110.5,11.5C 110.833,12.8333 111.167,12.8333 111.5,11.5C 112.376,11.3691 113.043,11.7025 113.5,12.5C 111.604,13.4656 109.604,13.7989 107.5,13.5C 103.346,9.0565 104.512,6.38984 111,5.5C 112.728,5.89901 114.228,6.56567 115.5,7.5 Z"/></g>
<g><path style="opacity:1" fill="#d0d0d0" d="M 142.5,7.5 C 144.364,6.20719 146.364,6.20719 148.5,7.5C 148.376,8.10667 148.043,8.44001 147.5,8.5C 146.081,7.54885 144.415,7.21552 142.5,7.5 Z"/></g>
<g><path style="opacity:1" fill="#d0d0d0" d="M 162.5,10.5 C 159.364,7.36498 155.697,6.69831 151.5,8.5C 153.939,5.19737 156.939,4.69737 160.5,7C 161.823,7.81595 162.489,8.98261 162.5,10.5 Z"/></g>
<g><path style="opacity:1" fill="#7f7f7f" d="M 115.5,7.5 C 116.5,7.83333 117.167,8.5 117.5,9.5C 117.5,13.8333 117.5,18.1667 117.5,22.5C 112.86,23.0251 108.527,22.3584 104.5,20.5C 103.402,19.3991 103.235,18.0657 104,16.5C 104.422,14.5743 105.589,13.5743 107.5,13.5C 109.604,13.7989 111.604,13.4656 113.5,12.5C 113.043,11.7025 112.376,11.3691 111.5,11.5C 111.167,11.5 110.833,11.5 110.5,11.5C 107.306,11.8244 106.306,10.6578 107.5,8C 110.146,7.50258 112.813,7.33591 115.5,7.5 Z"/></g>
<g><path style="opacity:1" fill="#dbdbdb" d="M 132.5,7.5 C 128.833,7.5 125.167,7.5 121.5,7.5C 121.5,12.5 121.5,17.5 121.5,22.5C 123.167,22.5 124.833,22.5 126.5,22.5C 126.5,18.8333 126.5,15.1667 126.5,11.5C 128.292,11.634 129.958,11.3007 131.5,10.5C 130.817,12.1765 129.483,12.8432 127.5,12.5C 127.5,16.1667 127.5,19.8333 127.5,23.5C 125.167,23.5 122.833,23.5 120.5,23.5C 120.5,17.8333 120.5,12.1667 120.5,6.5C 123.579,6.73994 126.579,6.40661 129.5,5.5C 130.739,5.94242 131.739,6.60908 132.5,7.5 Z"/></g>
<g><path style="opacity:1" fill="#7b7b7b" d="M 132.5,7.5 C 132.5,8.16667 132.5,8.83333 132.5,9.5C 132.5,10.1667 132.167,10.5 131.5,10.5C 129.958,11.3007 128.292,11.634 126.5,11.5C 126.5,15.1667 126.5,18.8333 126.5,22.5C 124.833,22.5 123.167,22.5 121.5,22.5C 121.5,17.5 121.5,12.5 121.5,7.5C 125.167,7.5 128.833,7.5 132.5,7.5 Z"/></g>
<g><path style="opacity:1" fill="#808080" d="M 162.5,10.5 C 162.5,12.5 162.5,14.5 162.5,16.5C 159.428,16.1826 156.428,16.5159 153.5,17.5C 153.957,18.2975 154.624,18.6309 155.5,18.5C 156.999,19.494 158.666,19.494 160.5,18.5C 161.833,19.8333 161.833,21.1667 160.5,22.5C 157.833,22.5 155.167,22.5 152.5,22.5C 151.5,21.8333 150.5,21.1667 149.5,20.5C 148.532,17.5547 148.366,14.5547 149,11.5C 149.377,10.0577 150.21,9.05773 151.5,8.5C 155.697,6.69831 159.364,7.36498 162.5,10.5 Z"/></g>
<g><path style="opacity:1" fill="#c5c5c5" d="M 134.5,0.5 C 134.5,7.83333 134.5,15.1667 134.5,22.5C 135.833,22.5 137.167,22.5 138.5,22.5C 138.232,20.901 138.566,19.5676 139.5,18.5C 139.5,20.1667 139.5,21.8333 139.5,23.5C 137.5,23.5 135.5,23.5 133.5,23.5C 133.819,18.6367 133.486,13.97 132.5,9.5C 132.5,8.83333 132.5,8.16667 132.5,7.5C 133.167,5.16667 133.833,2.83333 134.5,0.5 Z"/></g>
<g><path style="opacity:1" fill="#c2c2c2" d="M 142.5,7.5 C 142.573,9.02694 141.906,10.0269 140.5,10.5C 140.427,8.97306 141.094,7.97306 142.5,7.5 Z"/></g>
<g><path style="opacity:1" fill="#cacaca" d="M 90.5,7.5 C 91.1667,8.83333 91.8333,10.1667 92.5,11.5C 92.631,12.2389 92.4643,12.9056 92,13.5C 90.6814,11.7505 90.1814,9.7505 90.5,7.5 Z"/></g>
<g><path style="opacity:1" fill="#eaeaea" d="M 154.5,12.5 C 155.708,11.218 157.042,11.218 158.5,12.5C 158.376,13.1067 158.043,13.44 157.5,13.5C 156.791,12.596 155.791,12.2627 154.5,12.5 Z"/></g>
<g><path style="opacity:1" fill="#acadac" d="M 41.5,8.5 C 41.8333,8.5 42.1667,8.5 42.5,8.5C 42.9465,11.0101 42.2798,13.0101 40.5,14.5C 40.5,13.8333 40.5,13.1667 40.5,12.5C 41.4345,11.4324 41.7678,10.099 41.5,8.5 Z"/></g>
<g><path style="opacity:1" fill="#cbcbcb" d="M 170.5,2.5 C 173.727,6.37972 174.06,10.5464 171.5,15C 172.895,17.6789 173.561,20.5123 173.5,23.5C 171.473,23.6621 169.473,23.4955 167.5,23C 166.944,22.6174 166.611,22.1174 166.5,21.5C 168.435,22.1495 170.435,22.4828 172.5,22.5C 171.858,19.865 171.191,17.1984 170.5,14.5C 170.787,12.5136 171.453,10.6803 172.5,9C 170.997,7.07863 170.331,4.91196 170.5,2.5 Z"/></g>
<g><path style="opacity:1" fill="#d4d4d4" d="M 144.5,12.5 C 145.11,13.391 145.443,14.391 145.5,15.5C 143.618,14.779 143.285,13.779 144.5,12.5 Z"/></g>
<g><path style="opacity:1" fill="#b9bab9" d="M 52.5,15.5 C 53.5,15.5 54.5,15.5 55.5,15.5C 55.7678,17.099 55.4345,18.4324 54.5,19.5C 54.4729,17.8007 53.8062,16.4674 52.5,15.5 Z"/></g>
<g><path style="opacity:1" fill="#d7d7d7" d="M 95.5,15.5 C 95.7086,14.0783 96.2086,12.745 97,11.5C 97.4986,15.1516 97.6653,18.8183 97.5,22.5C 98.8333,22.5 100.167,22.5 101.5,22.5C 101.5,15.5 101.5,8.5 101.5,1.5C 99.5,1.5 97.5,1.5 95.5,1.5C 95.2766,5.16211 94.2766,8.49544 92.5,11.5C 92.7506,7.75117 93.4172,4.0845 94.5,0.5C 97.1667,0.5 99.8333,0.5 102.5,0.5C 102.5,8.16667 102.5,15.8333 102.5,23.5C 100.5,23.5 98.5,23.5 96.5,23.5C 96.8064,20.6146 96.4731,17.9479 95.5,15.5 Z"/></g>
<g><path style="opacity:1" fill="#cbcbcb" d="M 166.5,2.5 C 166.669,4.91196 166.003,7.07863 164.5,9C 164.743,9.90211 165.077,10.7354 165.5,11.5C 163.692,12.9179 163.025,14.9179 163.5,17.5C 162.209,17.2627 161.209,17.596 160.5,18.5C 158.666,19.494 156.999,19.494 155.5,18.5C 154.624,18.6309 153.957,18.2975 153.5,17.5C 156.428,16.5159 159.428,16.1826 162.5,16.5C 162.5,14.5 162.5,12.5 162.5,10.5C 163.833,7.83333 165.167,5.16667 166.5,2.5 Z"/></g>
<g><path style="opacity:1" fill="#bcd1dc" d="M 19.5,17.5 C 19.1936,20.3854 19.5269,23.0521 20.5,25.5C 20.44,26.0431 20.1067,26.3764 19.5,26.5C 18.1968,23.3553 18.1968,20.3553 19.5,17.5 Z"/></g>
<g><path style="opacity:1" fill="#dadada" d="M 82.5,0.5 C 82.5,7.83333 82.5,15.1667 82.5,22.5C 83.8333,22.5 85.1667,22.5 86.5,22.5C 86.3347,18.8183 86.5014,15.1516 87,11.5C 88.2692,12.9047 88.7692,14.5714 88.5,16.5C 87.5318,18.6074 87.1984,20.9407 87.5,23.5C 85.5,23.5 83.5,23.5 81.5,23.5C 81.1746,15.6484 81.508,7.98178 82.5,0.5 Z"/></g>
<g><path style="opacity:1" fill="#c7c7c7" d="M 109.5,17.5 C 110.568,18.4345 111.901,18.7678 113.5,18.5C 111.965,19.7879 110.299,19.7879 108.5,18.5C 108.624,17.8933 108.957,17.56 109.5,17.5 Z"/></g>
<g><path style="opacity:1" fill="#c9c9c9" d="M 160.5,18.5 C 164.5,19.8333 164.5,21.1667 160.5,22.5C 161.833,21.1667 161.833,19.8333 160.5,18.5 Z"/></g>
<g><path style="opacity:1" fill="#90b1c5" d="M 26.5,20.5 C 26.1667,22.8333 24.8333,24.1667 22.5,24.5C 23.5,22.8333 24.8333,21.5 26.5,20.5 Z"/></g>
<g><path style="opacity:1" fill="#cacaca" d="M 117.5,9.5 C 118.486,13.97 118.819,18.6367 118.5,23.5C 115.603,23.3187 112.77,23.6521 110,24.5C 108.5,24 107,23.5 105.5,23C 104.748,22.3292 104.414,21.4959 104.5,20.5C 108.527,22.3584 112.86,23.0251 117.5,22.5C 117.5,18.1667 117.5,13.8333 117.5,9.5 Z"/></g>
<g><path style="opacity:1" fill="#d9d9d9" d="M 139.5,18.5 C 139.56,17.9569 139.893,17.6236 140.5,17.5C 141.624,18.914 142.624,20.414 143.5,22C 145.167,22.6667 146.833,22.6667 148.5,22C 147.748,21.3292 147.414,20.4959 147.5,19.5C 148.167,19.8333 148.833,20.1667 149.5,20.5C 149.5,21.5 149.5,22.5 149.5,23.5C 147.143,23.6633 144.81,23.4966 142.5,23C 141.601,21.3484 140.601,19.8484 139.5,18.5 Z"/></g>
<g><path style="opacity:1" fill="#cecece" d="M 152.5,22.5 C 155.167,22.5 157.833,22.5 160.5,22.5C 157.881,24.9715 155.214,24.9715 152.5,22.5 Z"/></g>
<g><path style="opacity:1" fill="#c9cac9" d="M 48.5,29.5 C 50.9845,30.2601 50.9845,31.2601 48.5,32.5C 48.5,31.5 48.5,30.5 48.5,29.5 Z"/></g>
<g><path style="opacity:1" fill="#acadac" d="M 27.5,30.5 C 28.1667,30.5 28.8333,30.5 29.5,30.5C 29.0269,31.9063 28.0269,32.573 26.5,32.5C 26.5,32.1667 26.5,31.8333 26.5,31.5C 27.1667,31.5 27.5,31.1667 27.5,30.5 Z"/></g>
<g><path style="opacity:1" fill="#6e95bf" d="M 123.5,31.5 C 125.167,31.5 126.833,31.5 128.5,31.5C 128.178,37.358 128.511,43.0247 129.5,48.5C 129.5,49.8333 129.5,51.1667 129.5,52.5C 127.708,52.634 126.042,52.3007 124.5,51.5C 123.509,45.021 123.176,38.3543 123.5,31.5 Z"/></g>
<g><path style="opacity:1" fill="#c8d7e6" d="M 115.5,51.5 C 114.345,44.6791 114.179,37.6791 115,30.5C 116.388,29.4464 117.888,29.2797 119.5,30C 120.265,37.8352 121.265,45.6686 122.5,53.5C 120.473,53.6621 118.473,53.4955 116.5,53C 115.944,52.6174 115.611,52.1174 115.5,51.5 Z"/></g>
<g><path style="opacity:1" fill="#658fbb" d="M 115.5,51.5 C 115.5,44.8333 115.5,38.1667 115.5,31.5C 116.833,31.5 118.167,31.5 119.5,31.5C 119.164,38.6366 119.831,45.6366 121.5,52.5C 119.435,52.4828 117.435,52.1495 115.5,51.5 Z"/></g>
<g><path style="opacity:1" fill="#e6ecf4" d="M 130.5,48.5 C 130.167,48.5 129.833,48.5 129.5,48.5C 128.511,43.0247 128.178,37.358 128.5,31.5C 126.833,31.5 125.167,31.5 123.5,31.5C 124.828,29.2554 126.661,28.9221 129,30.5C 129.209,36.5807 129.709,42.5807 130.5,48.5 Z"/></g>
<g><path style="opacity:1" fill="#acacab" d="M 24.5,32.5 C 25.1667,32.5 25.8333,32.5 26.5,32.5C 26.0269,33.9063 25.0269,34.573 23.5,34.5C 23.8333,33.8333 24.1667,33.1667 24.5,32.5 Z"/></g>
<g><path style="opacity:1" fill="#abacab" d="M 18.5,35.5 C 19.1667,35.5 19.8333,35.5 20.5,35.5C 19.3646,37.2132 17.698,37.8799 15.5,37.5C 15.5,37.1667 15.5,36.8333 15.5,36.5C 16.791,36.7373 17.791,36.404 18.5,35.5 Z"/></g>
<g><path style="opacity:1" fill="#7b9dc4" d="M 102.5,37.5 C 102.427,39.0269 103.094,40.0269 104.5,40.5C 105.436,44.7352 105.769,49.0685 105.5,53.5C 103.5,53.5 101.5,53.5 99.5,53.5C 99.5,49.5 99.5,45.5 99.5,41.5C 98.209,41.2627 97.209,41.596 96.5,42.5C 96.5,46.1667 96.5,49.8333 96.5,53.5C 94.5,53.5 92.5,53.5 90.5,53.5C 90.5,49.8333 90.5,46.1667 90.5,42.5C 89.4324,41.5655 88.099,41.2322 86.5,41.5C 86.5,45.1667 86.5,48.8333 86.5,52.5C 85.1667,52.5 83.8333,52.5 82.5,52.5C 82.5,47.5 82.5,42.5 82.5,37.5C 86.7826,36.9894 90.7826,37.6561 94.5,39.5C 95.2975,39.0431 95.6309,38.3764 95.5,37.5C 97.8333,36.1667 100.167,36.1667 102.5,37.5 Z"/></g>
<g><path style="opacity:1" fill="#e2eaf2" d="M 112.5,37.5 C 112.167,37.5 111.833,37.5 111.5,37.5C 110.432,36.5655 109.099,36.2322 107.5,36.5C 107.5,41.8333 107.5,47.1667 107.5,52.5C 107.5,52.8333 107.5,53.1667 107.5,53.5C 106.344,46.0113 106.178,38.3446 107,30.5C 108.699,29.5939 110.533,29.2606 112.5,29.5C 113.371,32.2716 113.371,34.9382 112.5,37.5 Z"/></g>
<g><path style="opacity:1" fill="#658fbb" d="M 107.5,31.5 C 108.833,31.5 110.167,31.5 111.5,31.5C 111.5,32.8333 111.5,34.1667 111.5,35.5C 110.167,35.5 108.833,35.5 107.5,35.5C 107.5,34.1667 107.5,32.8333 107.5,31.5 Z"/></g>
<g><path style="opacity:1" fill="#6790bc" d="M 111.5,37.5 C 111.5,42.5 111.5,47.5 111.5,52.5C 110.167,52.5 108.833,52.5 107.5,52.5C 107.5,47.1667 107.5,41.8333 107.5,36.5C 109.099,36.2322 110.432,36.5655 111.5,37.5 Z"/></g>
<g><path style="opacity:1" fill="#b5c9de" d="M 111.5,37.5 C 111.833,37.5 112.167,37.5 112.5,37.5C 112.245,42.1176 112.579,46.9509 113.5,52C 111.75,53.3186 109.75,53.8186 107.5,53.5C 107.5,53.1667 107.5,52.8333 107.5,52.5C 108.833,52.5 110.167,52.5 111.5,52.5C 111.5,47.5 111.5,42.5 111.5,37.5 Z"/></g>
<g><path style="opacity:1" fill="#6c93be" d="M 143.5,37.5 C 144.11,38.391 144.443,39.391 144.5,40.5C 144.5,41.1667 144.167,41.5 143.5,41.5C 141.105,40.6365 138.771,40.6365 136.5,41.5C 136.709,42.086 137.043,42.586 137.5,43C 139.473,43.4955 141.473,43.6621 143.5,43.5C 144.265,46.0961 144.599,48.7628 144.5,51.5C 140.841,52.6834 137.175,52.6834 133.5,51.5C 132.873,50.5832 132.539,49.5832 132.5,48.5C 133.833,47.1667 135.167,47.1667 136.5,48.5C 137.5,48.5 138.5,48.5 139.5,48.5C 141.379,48.6068 141.712,48.1068 140.5,47C 132.78,47.1459 130.78,43.9792 134.5,37.5C 137.396,36.2248 140.396,36.2248 143.5,37.5 Z"/></g>
<g><path style="opacity:1" fill="#b9bab8" d="M 14.5,37.5 C 12.0948,38.7682 9.42816,39.4349 6.5,39.5C 6.5,44.1667 6.5,48.8333 6.5,53.5C 5.51283,48.6946 5.17949,43.6946 5.5,38.5C 8.48237,38.0371 11.4824,37.7038 14.5,37.5 Z"/></g>
<g><path style="opacity:1" fill="#b7cadf" d="M 95.5,37.5 C 95.6309,38.3764 95.2975,39.0431 94.5,39.5C 90.7826,37.6561 86.7826,36.9894 82.5,37.5C 82.5,42.5 82.5,47.5 82.5,52.5C 83.8333,52.5 85.1667,52.5 86.5,52.5C 86.5,48.8333 86.5,45.1667 86.5,41.5C 88.099,41.2322 89.4324,41.5655 90.5,42.5C 89.5,42.5 88.5,42.5 87.5,42.5C 87.5,46.1667 87.5,49.8333 87.5,53.5C 85.5,53.5 83.5,53.5 81.5,53.5C 81.5,47.8333 81.5,42.1667 81.5,36.5C 86.2303,36.2834 90.8969,36.6167 95.5,37.5 Z"/></g>
<g><path style="opacity:1" fill="#dae4ee" d="M 102.5,37.5 C 103.906,37.9731 104.573,38.9731 104.5,40.5C 103.094,40.0269 102.427,39.0269 102.5,37.5 Z"/></g>
<g><path style="opacity:1" fill="#d4dfeb" d="M 143.5,37.5 C 145.552,38.0527 145.885,39.0527 144.5,40.5C 144.443,39.391 144.11,38.391 143.5,37.5 Z"/></g>
<g><path style="opacity:1" fill="#ececec" d="M 38.5,40.5 C 40.4241,40.7107 40.7574,41.3774 39.5,42.5C 39.1667,41.8333 38.8333,41.1667 38.5,40.5 Z"/></g>
<g><path style="opacity:1" fill="#bfd0e2" d="M 143.5,41.5 C 143.5,42.1667 143.5,42.8333 143.5,43.5C 141.473,43.6621 139.473,43.4955 137.5,43C 137.043,42.586 136.709,42.086 136.5,41.5C 138.771,40.6365 141.105,40.6365 143.5,41.5 Z"/></g>
<g><path style="opacity:1" fill="#a1a2a1" d="M 30.5,44.5 C 30.5,44.1667 30.5,43.8333 30.5,43.5C 33.1667,43.5 35.8333,43.5 38.5,43.5C 37.828,44.2674 36.9947,44.9341 36,45.5C 34.3005,44.5939 32.4672,44.2606 30.5,44.5 Z"/></g>
<g><path style="opacity:1" fill="#f4f7fa" d="M 96.5,42.5 C 97.209,41.596 98.209,41.2627 99.5,41.5C 99.5,45.5 99.5,49.5 99.5,53.5C 99.1254,49.5575 98.1254,45.8909 96.5,42.5 Z"/></g>
<g><path style="opacity:1" fill="#dbdbdb" d="M 30.5,43.5 C 30.5,43.8333 30.5,44.1667 30.5,44.5C 28.2188,44.0773 26.5521,44.744 25.5,46.5C 24.596,45.791 24.2627,44.791 24.5,43.5C 26.5,43.5 28.5,43.5 30.5,43.5 Z"/></g>
<g><path style="opacity:1" fill="#d5e0ec" d="M 134.5,37.5 C 130.78,43.9792 132.78,47.1459 140.5,47C 141.712,48.1068 141.379,48.6068 139.5,48.5C 138.5,47.1667 137.5,47.1667 136.5,48.5C 135.167,47.1667 133.833,47.1667 132.5,48.5C 131.624,45.2011 131.457,41.8678 132,38.5C 132.671,37.7476 133.504,37.4142 134.5,37.5 Z"/></g>
<g><path style="opacity:1" fill="#bccee1" d="M 143.5,43.5 C 146.862,45.8823 147.195,48.549 144.5,51.5C 144.599,48.7628 144.265,46.0961 143.5,43.5 Z"/></g>
<g><path style="opacity:1" fill="#a9bfd8" d="M 129.5,48.5 C 129.833,48.5 130.167,48.5 130.5,48.5C 130.938,49.5063 131.604,49.5063 132.5,48.5C 132.539,49.5832 132.873,50.5832 133.5,51.5C 137.175,52.6834 140.841,52.6834 144.5,51.5C 144.389,52.1174 144.056,52.6174 143.5,53C 139.833,53.6667 136.167,53.6667 132.5,53C 132,52.5 131.5,52 131,51.5C 130.161,52.6241 128.994,53.2908 127.5,53.5C 125.97,53.3601 124.97,52.6935 124.5,51.5C 126.042,52.3007 127.708,52.634 129.5,52.5C 129.5,51.1667 129.5,49.8333 129.5,48.5 Z"/></g>
</svg>
